<?xml version="1.0" encoding="utf-8"?>
<!-- Generator: Adobe Illustrator 25.2.3, SVG Export Plug-In . SVG Version: 6.00 Build 0)  -->
<svg version="1.1" id="Layer_1" xmlns="http://www.w3.org/2000/svg" xmlns:xlink="http://www.w3.org/1999/xlink" x="0px" y="0px"
	 viewBox="0 0 797.4 185.4" style="enable-background:new 0 0 797.4 185.4;" xml:space="preserve">
<style type="text/css">
	.st0{fill-rule:evenodd;clip-rule:evenodd;fill:#263F92;}
	.st1{fill:#263F92;}
	.st2{enable-background:new    ;}
</style>
<g>
	<path class="st0" d="M57.8,61.7c2.2,0,4,1.8,4,4c0,2.2-1.8,4-4,4s-4-1.8-4-4C53.8,63.5,55.6,61.7,57.8,61.7L57.8,61.7z"/>
	<path class="st1" d="M70.2,69.7c0.2,0,0.4,0,0.6,0c2.2-0.3,3.7-2.4,3.4-4.6c-0.3-2.2-2.4-3.7-4.6-3.4s-3.7,2.4-3.4,4.6
		C66.5,68.2,68.2,69.7,70.2,69.7L70.2,69.7z"/>
	<path class="st1" d="M81.8,69.5c0.3,0.1,0.6,0.1,0.9,0.1c0.7,0,1.5-0.2,2.1-0.6c0.9-0.6,1.5-1.5,1.8-2.5c0.2-1,0.1-2.1-0.5-3
		c-0.6-0.9-1.5-1.5-2.5-1.8c-1-0.2-2.1-0.1-3,0.5s-1.5,1.5-1.8,2.5C78.2,66.8,79.6,69,81.8,69.5L81.8,69.5z"/>
	<path class="st1" d="M158.2,70C158.2,70,158.3,70,158.2,70l28.8-0.2c2.4,0,4.4-2,4.4-4.4c0-2.4-2-4.4-4.4-4.4l-28.7,0.2
		c-2.4,0-4.4,2-4.4,4.4c0,1.2,0.5,2.3,1.3,3.1C156,69.6,157,70,158.2,70L158.2,70z"/>
	<path class="st0" d="M57.8,89.8c2.2,0,4,1.8,4,4s-1.8,4-4,4s-4-1.8-4-4C53.8,91.6,55.6,89.8,57.8,89.8L57.8,89.8z"/>
	<path class="st1" d="M70.2,97.7c0.2,0,0.4,0,0.6,0c2.2-0.3,3.7-2.4,3.4-4.6c-0.3-2.2-2.4-3.7-4.6-3.4c-2.2,0.3-3.7,2.4-3.4,4.6
		C66.5,96.3,68.2,97.7,70.2,97.7L70.2,97.7z"/>
	<path class="st1" d="M81.8,97.6c0.3,0.1,0.6,0.1,0.9,0.1c0.7,0,1.5-0.2,2.1-0.6c0.9-0.6,1.5-1.5,1.8-2.5c0.2-1,0.1-2.1-0.5-3
		s-1.5-1.5-2.5-1.8c-1-0.2-2.1-0.1-3,0.5s-1.5,1.5-1.8,2.5C78.2,94.9,79.6,97.1,81.8,97.6L81.8,97.6z"/>
	<path class="st1" d="M158.2,98.1C158.2,98.1,158.3,98.1,158.2,98.1l28.8-0.2c2.4,0,4.4-2,4.4-4.4s-2-4.4-4.4-4.4l-28.7,0.2
		c-2.4,0-4.4,2-4.4,4.4c0,1.2,0.5,2.3,1.3,3.1C156,97.7,157,98.1,158.2,98.1L158.2,98.1z"/>
	<path class="st1" d="M57.8,126.2c2.2,0,4-1.8,4-4s-1.8-4-4-4s-4,1.8-4,4C53.8,124.4,55.6,126.2,57.8,126.2L57.8,126.2z"/>
	<path class="st1" d="M67.8,125.4c0.7,0.5,1.5,0.8,2.4,0.8c0.2,0,0.4,0,0.6,0c1-0.1,2-0.7,2.6-1.6s0.9-1.9,0.7-3
		c-0.1-1-0.7-2-1.6-2.6s-1.9-0.9-3-0.7c-1,0.1-2,0.7-2.6,1.6s-0.9,1.9-0.7,3C66.4,123.8,66.9,124.8,67.8,125.4L67.8,125.4z"/>
	<path class="st1" d="M81.8,126c0.3,0.1,0.6,0.1,0.9,0.1c0.7,0,1.5-0.2,2.1-0.6c0.9-0.6,1.5-1.5,1.8-2.5c0.5-2.1-0.9-4.3-3-4.8
		c-2.2-0.5-4.3,0.9-4.8,3c-0.2,1-0.1,2.1,0.5,3C79.8,125.1,80.7,125.7,81.8,126L81.8,126z"/>
	<path class="st1" d="M158.2,126.5C158.2,126.5,158.3,126.5,158.2,126.5l28.8-0.2c2.4,0,4.4-2,4.4-4.4s-2-4.4-4.4-4.4l-28.7,0.2
		c-2.4,0-4.4,2-4.4,4.4c0,1.2,0.5,2.3,1.3,3.1C156,126.1,157,126.5,158.2,126.5L158.2,126.5z"/>
	<path class="st1" d="M223.7,157.8c-0.9-1-2.2-1.5-3.5-1.5h-0.1c-8,0-12.4,5.4-15,8.6c-0.3,0.3-0.5,0.6-0.7,0.8
		c-2,2.2-2.4,2.4-3.5,2.5c-1.4,0-1.7-0.3-4-3.1c-2.3-2.9-6.1-7.5-12.5-8.5l-0.1-14.5h18.1c1.5,0,2.8-0.7,3.8-1.9
		c0.9-1,1.5-2.6,1.5-4.1V51.7c0-3.3-2.4-6.1-5.3-6.1H43.2c-1.5,0-2.8,0.7-3.8,1.9c-0.9,1-1.5,2.6-1.5,4.1V136c0,3.3,2.4,6.1,5.3,6.1
		h17.5l0.1,15.3c-4.8,1.7-7.7,5.2-9.7,7.7c-0.3,0.3-0.5,0.5-0.7,0.7c-2,2.2-2.3,2.5-3.4,2.5l0,0c-1.4,0-1.7-0.2-4-3.1
		c-2.7-3.2-7.1-8.7-15.3-8.7l0,0c-2.9,0-5.3,2.7-5.3,6.1c0,3.3,2.4,6.1,5.3,6.1c3.4,0,5.3,2.2,7.4,4.9c2.7,3.3,5.7,7,11.9,7
		c5.7,0,8.8-3.5,11-6c0.1-0.1,0.2-0.3,0.4-0.4c0.1-0.1,0.2-0.2,0.3-0.3l0.3-0.3c2.4-3,4.1-4.8,7.3-4.9h0.1c3.4,0,5.3,2.2,7.4,4.9
		c2.7,3.3,5.7,7,11.9,7c5.7,0,8.8-3.5,11-6c0.1-0.1,0.2-0.3,0.4-0.4c0.1-0.1,0.2-0.2,0.3-0.3l0.3-0.3c2.4-3,4.1-4.8,7.3-4.9h0.1
		c3.4,0,5.3,2.2,7.4,4.9c2.7,3.3,5.7,7,11.9,7c5.7,0,8.8-3.5,11-6c0.1-0.1,0.2-0.3,0.4-0.4c0.1-0.1,0.2-0.2,0.3-0.3l0.3-0.3
		c2.4-3,4.1-4.8,7.3-4.9h0.1c3.2,0,4.9,1.8,7.4,4.9c2.7,3.3,5.7,7,11.8,7h0.1c5.6,0,8.7-3.5,10.9-6c0.1-0.1,0.2-0.3,0.4-0.4
		c0.1-0.1,0.2-0.2,0.3-0.3l0.3-0.3c2.4-3,4.1-4.8,7.3-4.9h0.1c3.2,0,4.9,1.8,7.4,4.9c2.7,3.3,5.7,7,11.9,7h0.1c5.7,0,8.7-3.5,10.9-6
		c0.1-0.1,0.2-0.3,0.4-0.4c0.1-0.1,0.2-0.2,0.3-0.3l0.3-0.3c2.1-2.6,4-4.9,7.4-4.9c3,0,5.3-2.7,5.3-6
		C225.5,160.8,224.9,159,223.7,157.8L223.7,157.8z M165.9,165.8c-2,2.2-2.3,2.5-3.4,2.5l0,0c-1.4,0-1.7-0.2-4-3.1
		c-2.7-3.2-7.1-8.7-15.3-8.7h-0.1c-8,0-12.4,5.4-15,8.6c-0.3,0.3-0.5,0.6-0.7,0.8c-2,2.2-2.3,2.5-3.4,2.5c-1.4,0-1.7-0.2-4-3.1
		c-2.7-3.2-7.1-8.7-15.3-8.7h-0.1c-8,0-12.4,5.4-15,8.6c-0.3,0.3-0.5,0.5-0.7,0.8c-2,2.2-2.3,2.5-3.4,2.5l0,0c-1.4,0-1.7-0.2-4-3.1
		c-2.1-2.5-5.1-6.2-10-7.9l-0.1-15.2h102.4l0.1,16.3c-3.3,1.8-5.5,4.5-7.2,6.6C166.3,165.3,166.1,165.5,165.9,165.8L165.9,165.8z
		 M197.1,114v16H48.6v-16H197.1L197.1,114z M197.1,85.8v15.6H48.6V85.8H197.1L197.1,85.8z M197.1,57.7v15.6H48.6V57.7H197.1
		L197.1,57.7z"/>
	<path class="st1" d="M29.8,32.1c0.8,2.1,2.8,3.5,5,3.5c0.7,0,1.3-0.1,1.8-0.3h0.1c1.3-0.5,2.4-1.5,3-2.8c0.6-1.3,0.6-2.8,0.1-4.1
		l-5.1-13.5c-0.5-1.3-1.5-2.4-2.8-3s-2.8-0.6-4.1-0.1c-1.3,0.5-2.4,1.5-3,2.8s-0.6,2.8-0.1,4.1L29.8,32.1L29.8,32.1z"/>
	<path class="st1" d="M24.6,62.7c2.7-1.1,4.1-4.1,3.1-6.9c-0.5-1.3-1.5-2.4-2.8-3s-2.8-0.6-4.1-0.1L7.4,57.8c-1.3,0.5-2.4,1.5-3,2.8
		s-0.6,2.8-0.1,4.1c0.8,2.1,2.8,3.4,5,3.4c0.7,0,1.3-0.1,1.8-0.3L24.6,62.7L24.6,62.7L24.6,62.7z"/>
	<path class="st1" d="M7.1,40.7l11.5,5.2c0.7,0.3,1.4,0.4,2.2,0.4c2.1,0,4-1.2,4.9-3.1c0.6-1.3,0.6-2.8,0.1-4.1s-1.5-2.4-2.8-2.9
		L11.5,31c-1.3-0.6-2.8-0.6-4.1-0.1S5,32.4,4.5,33.7c-0.6,1.3-0.7,2.7-0.2,4S5.8,40.1,7.1,40.7L7.1,40.7z"/>
</g>
<g class="st2">
	<path class="st1" d="M242.7,124.5v-6.7l5.9-1.1V76.8l-5.9-1.1v-6.7h5.9h11.1h6v6.7l-6,1.1v39.1h15.7l0.5-7h8.5v15.5H242.7z"/>
	<path class="st1" d="M314.1,124.5c-0.3-0.7-0.6-1.4-0.8-2.1s-0.4-1.5-0.5-2.2c-1.3,1.5-2.9,2.8-4.8,3.7c-1.9,0.9-4.1,1.4-6.5,1.4
		c-4,0-7.3-1.1-9.6-3.3c-2.4-2.2-3.6-5.2-3.6-9c0-3.9,1.6-6.9,4.7-9c3.1-2.1,7.7-3.2,13.7-3.2h5.7v-4c0-2-0.6-3.5-1.7-4.6
		c-1.1-1.1-2.8-1.6-5.1-1.6c-1.3,0-2.4,0.1-3.4,0.4c-1,0.3-1.8,0.6-2.4,1l-0.7,4.4h-8.4l0-9.2c2-1.4,4.4-2.5,7-3.5
		c2.6-0.9,5.5-1.4,8.6-1.4c5.1,0,9.3,1.3,12.5,3.8c3.2,2.5,4.8,6.1,4.8,10.7v17.1c0,0.6,0,1.2,0,1.8c0,0.6,0.1,1.1,0.1,1.6l3.4,0.5
		v6.7H314.1z M304.5,117c1.7,0,3.2-0.4,4.6-1.1s2.4-1.6,3.2-2.7v-6.3h-5.7c-2.4,0-4.2,0.6-5.4,1.7c-1.2,1.1-1.8,2.4-1.8,4
		c0,1.4,0.5,2.5,1.4,3.3C301.6,116.6,302.9,117,304.5,117z"/>
	<path class="st1" d="M374.2,68.9c6.4,0,11.4,1.6,15,4.9c3.7,3.3,5.5,7.5,5.5,12.8c0,5.3-1.8,9.6-5.5,12.8c-3.7,3.2-8.7,4.8-15,4.8
		h-9.4v12.3l6,1.1v6.7h-23v-6.7l5.9-1.1V76.8l-5.9-1.1v-6.7h5.9H374.2z M364.8,95.7h9.4c3.1,0,5.4-0.8,7-2.5
		c1.6-1.7,2.4-3.8,2.4-6.5c0-2.7-0.8-4.9-2.4-6.6c-1.6-1.7-3.9-2.6-7-2.6h-9.4V95.7z"/>
	<path class="st1" d="M396.4,71.7V65h17.1v51.7l5.4,1.1v6.7H397v-6.7l5.4-1.1V72.8L396.4,71.7z"/>
	<path class="st1" d="M447.9,124.5c-0.3-0.7-0.6-1.4-0.8-2.1c-0.2-0.7-0.4-1.5-0.5-2.2c-1.3,1.5-2.9,2.8-4.8,3.7
		c-1.9,0.9-4.1,1.4-6.5,1.4c-4,0-7.3-1.1-9.6-3.3c-2.4-2.2-3.6-5.2-3.6-9c0-3.9,1.6-6.9,4.7-9c3.1-2.1,7.7-3.2,13.7-3.2h5.7v-4
		c0-2-0.6-3.5-1.7-4.6c-1.1-1.1-2.8-1.6-5.1-1.6c-1.3,0-2.4,0.1-3.4,0.4c-1,0.3-1.8,0.6-2.4,1l-0.7,4.4h-8.4l0-9.2
		c2-1.4,4.4-2.5,7-3.5c2.6-0.9,5.5-1.4,8.6-1.4c5.1,0,9.3,1.3,12.5,3.8c3.2,2.5,4.8,6.1,4.8,10.7v17.1c0,0.6,0,1.2,0,1.8
		c0,0.6,0.1,1.1,0.1,1.6l3.4,0.5v6.7H447.9z M438.2,117c1.7,0,3.2-0.4,4.6-1.1s2.4-1.6,3.2-2.7v-6.3h-5.7c-2.4,0-4.2,0.6-5.4,1.7
		c-1.2,1.1-1.8,2.4-1.8,4c0,1.4,0.5,2.5,1.4,3.3C435.4,116.6,436.6,117,438.2,117z"/>
	<path class="st1" d="M477,73.1v10.1h7.2V91H477v21c0,1.6,0.3,2.7,1,3.4c0.7,0.7,1.6,1,2.7,1c0.8,0,1.4,0,2-0.1
		c0.6-0.1,1.2-0.2,1.9-0.3l1,8c-1.2,0.4-2.5,0.7-3.7,0.9s-2.5,0.3-4,0.3c-3.8,0-6.8-1.1-8.9-3.2c-2.1-2.1-3.1-5.5-3.1-10V91h-6.1
		v-7.8h6.1V73.1H477z"/>
	<path class="st1" d="M508.5,125.3c-6,0-10.7-1.9-14.3-5.7s-5.3-8.7-5.3-14.5v-1.5c0-6.1,1.7-11.2,5.1-15.1c3.4-4,7.9-5.9,13.6-5.9
		c5.6,0,9.9,1.7,13,5c3.1,3.4,4.6,7.9,4.6,13.6v6.1h-24.6l-0.1,0.2c0.2,2.7,1.1,5,2.7,6.7c1.6,1.8,3.8,2.6,6.6,2.6
		c2.5,0,4.5-0.2,6.1-0.7c1.6-0.5,3.4-1.3,5.3-2.3l3,6.9c-1.7,1.3-3.9,2.5-6.6,3.4C514.8,124.8,511.8,125.3,508.5,125.3z M507.5,91
		c-2.1,0-3.7,0.8-4.9,2.4c-1.2,1.6-1.9,3.6-2.2,6.2l0.1,0.2h13.7v-1c0-2.4-0.6-4.3-1.7-5.7C511.4,91.7,509.7,91,507.5,91z"/>
	<path class="st1" d="M530,117.8l5.4-1.1V91h-6.1v-7.8h6.1v-4.6c0-4.6,1.3-8.2,4-10.7c2.7-2.5,6.4-3.8,11.3-3.8
		c0.9,0,1.9,0.1,2.9,0.2c1,0.1,2.1,0.3,3.2,0.6l-1,8.3c-0.6-0.1-1.2-0.2-1.8-0.3s-1.2-0.1-2-0.1c-1.8,0-3.2,0.5-4.1,1.5
		c-0.9,1-1.4,2.4-1.4,4.3v4.6h8.2V91h-8.2v25.6l5.4,1.1v6.7H530V117.8z"/>
	<path class="st1" d="M557.5,103.5c0-6.2,1.7-11.2,5.2-15.1c3.4-3.9,8.2-5.9,14.3-5.9c6.1,0,10.9,2,14.3,5.9c3.4,3.9,5.2,9,5.2,15.1
		v0.8c0,6.2-1.7,11.3-5.2,15.2c-3.4,3.9-8.2,5.9-14.2,5.9c-6.1,0-10.9-2-14.4-5.9c-3.4-3.9-5.2-9-5.2-15.2V103.5z M568.7,104.3
		c0,3.8,0.7,6.8,2,9.1c1.3,2.3,3.5,3.4,6.4,3.4c2.9,0,5-1.1,6.3-3.4c1.3-2.3,2-5.3,2-9v-0.8c0-3.7-0.7-6.7-2-9
		c-1.3-2.3-3.5-3.5-6.4-3.5c-2.9,0-5,1.2-6.3,3.5c-1.3,2.3-2,5.3-2,9V104.3z"/>
</g>
<g class="st2">
	<path class="st1" d="M594.1,117.8l5.3-1.1V91.1l-5.9-1.1v-6.7h16.3l0.5,6c1-2.1,2.2-3.8,3.7-5c1.5-1.2,3.3-1.8,5.3-1.8
		c0.6,0,1.2,0,1.9,0.1c0.6,0.1,1.2,0.2,1.6,0.3L621.7,93l-4.6-0.1c-1.6,0-3,0.3-4,1c-1.1,0.6-1.9,1.5-2.4,2.7v20.1l5.3,1.1v6.7
		h-21.8V117.8z"/>
</g>
<g class="st2">
	<path class="st1" d="M624.5,89.9v-6.7h16.3l0.5,5.5c1.3-2,3-3.5,5-4.6c2-1.1,4.3-1.6,6.9-1.6c2.6,0,4.9,0.6,6.8,1.8
		c1.9,1.2,3.3,2.9,4.3,5.3c1.3-2.2,2.9-3.9,5-5.2c2-1.2,4.4-1.9,7.2-1.9c4.1,0,7.3,1.4,9.6,4.2c2.4,2.8,3.5,7.1,3.5,12.8v17.2
		l5.4,1.1v6.7h-21.3v-6.7l4.8-1.1V99.4c0-3.1-0.5-5.3-1.5-6.5c-1-1.2-2.5-1.8-4.5-1.8c-1.6,0-2.9,0.3-4.1,1
		c-1.2,0.7-2.1,1.7-2.8,2.9c0,0.5,0,0.9,0,1.2s0,0.7,0,1v19.3l4.5,1.1v6.7h-20.1v-6.7l4.5-1.1V99.4c0-3.1-0.5-5.2-1.5-6.5
		c-1-1.3-2.5-1.9-4.6-1.9c-1.5,0-2.8,0.3-3.9,0.9c-1.1,0.6-2.1,1.4-2.8,2.4v22.3l4.8,1.1v6.7h-21.3v-6.7l5.4-1.1V91.1L624.5,89.9z"
		/>
	<path class="st1" d="M714.9,125.3c-6,0-10.7-1.9-14.3-5.7s-5.3-8.7-5.3-14.5v-1.5c0-6.1,1.7-11.2,5.1-15.1c3.4-4,7.9-5.9,13.6-5.9
		c5.6,0,9.9,1.7,13,5c3.1,3.4,4.6,7.9,4.6,13.6v6.1h-24.6l-0.1,0.2c0.2,2.7,1.1,5,2.7,6.7c1.6,1.8,3.8,2.6,6.6,2.6
		c2.5,0,4.5-0.2,6.1-0.7c1.6-0.5,3.4-1.3,5.3-2.3l3,6.9c-1.7,1.3-3.9,2.5-6.6,3.4C721.2,124.8,718.2,125.3,714.9,125.3z M713.9,91
		c-2.1,0-3.7,0.8-4.9,2.4c-1.2,1.6-1.9,3.6-2.2,6.2l0.1,0.2h13.7v-1c0-2.4-0.6-4.3-1.7-5.7C717.8,91.7,716.1,91,713.9,91z"/>
</g>
</svg>
